Coordinates
version=1
nRows=7
nColumns=42
inDegrees=yes

Units are S.I. units (second, meters, Newtons, ...)
If the header above contains a line with 'inDegrees', this indicates whether rotational values are in degrees (yes) or radians (no).

endheader
time	pelvis_tilt	pelvis_list	pelvis_rotation	pelvis_tx	pelvis_ty	pelvis_tz	hip_flexion_r	hip_adduction_r	hip_rotation_r	knee_angle_r	knee_adduction_r	knee_angle_r_beta	ankle_angle_r	subtalar_angle_r	mtp_angle_r	hip_flexion_l	hip_adduction_l	hip_rotation_l	knee_angle_l	knee_adduction_l	knee_angle_l_beta	ankle_angle_l	subtalar_angle_l	mtp_angle_l	lumbar_extension	lumbar_bending	lumbar_rotation	arm_flex_r	arm_add_r	arm_rot_r	elbow_flex_r	pro_sup_r	wrist_flex_r	wrist_dev_r	arm_flex_l	arm_add_l	arm_rot_l	elbow_flex_l	pro_sup_l	wrist_flex_l	wrist_dev_l
      2.05000000	      6.81341641	      6.47930519	     -3.11315137	     -0.49207561	      0.97926350	      0.31958398	    -17.83572795	     -9.79913003	    -24.21510837	     27.43880610	     -3.82664039	      0.47889751	      8.37447530	     17.88343495	     -7.57702841	      8.17569979	      6.90506163	    -15.53972286	      2.75528044	     -2.83872712	      0.04808872	     -8.80707460	     14.74728552	     -7.57702841	    -21.12823522	    -12.59421514	      4.42942429	     24.59634381	    -17.48899947	     25.49325904	     39.18875551	     90.00000001	      0.00000000	      0.00000000	    -13.30282816	    -12.52148223	      4.71544038	     37.49518458	     90.00000001	      0.00000000	      0.00000000
      2.06000000	      6.80206636	      6.66047479	     -2.99007368	     -0.48283827	      0.98091681	      0.31733518	    -17.11917674	    -10.63671005	    -24.60316944	     29.75048346	     -3.92635004	      0.51924389	      6.18033020	     17.02188374	     -7.57560354	      7.52776197	      7.31780782	    -15.77545295	      2.57224660	     -2.85713291	      0.04489417	     -8.42063092	     15.44312766	     -7.57560354	    -21.14708025	    -12.79057316	      4.10402801	     23.83739999	    -17.39152314	     25.29044815	     39.21789369	     90.00000001	      0.00000000	      0.00000000	    -12.78209346	    -12.79719686	      5.20169960	     37.32625171	     90.00000001	      0.00000000	      0.00000000
      2.07000000	      6.75199398	      6.81841970	     -2.84700845	     -0.47378778	      0.98244729	      0.31503925	    -16.21889775	    -11.48273335	    -24.78926891	     32.31494810	     -3.96017591	      0.56400224	      4.00364128	     15.51337381	     -7.57263534	      6.99675679	      7.70005284	    -16.05228299	      2.53593855	     -2.89954156	      0.04426048	     -7.93838328	     16.33334029	     -7.57263534	    -21.14326659	    -12.94445837	      3.82320170	     23.02652999	    -17.30947852	     24.91993174	     39.21758246	     90.00000001	      0.00000000	      0.00000000	    -12.21224531	    -13.16936457	      6.04410671	     37.24087315	     90.00000001	      0.00000000	      0.00000000
      2.08000000	      6.78722268	      6.88728461	     -2.66234547	     -0.46503970	      0.98415047	      0.31279960	    -15.31880276	    -12.20194556	    -24.95094560	     34.89793171	     -4.04833853	      0.60908381	      1.51407460	     13.80248245	     -7.57003633	      6.33697992	      7.98148380	    -16.05811436	      2.43469081	     -2.88169075	      0.04249337	     -7.41633278	     16.89305952	     -7.57003633	    -21.29774446	    -12.99818053	      3.50026803	     22.27969189	    -17.25464923	     24.72098524	     39.21292515	     90.00000001	      0.00000000	      0.00000000	    -11.53218898	    -13.49222531	      6.60055789	     37.16493054	     90.00000001	      0.00000000	      0.00000000
      2.09000000	      6.86405746	      6.89137902	     -2.52301755	     -0.45648005	      0.98580340	      0.31069925	    -14.33599259	    -12.84224751	    -24.89713617	     37.58907269	     -4.12930661	      0.65605308	     -0.96149017	     11.59580775	     -7.56693878	      5.62691758	      8.18767262	    -15.96806768	      2.33831872	     -2.87276881	      0.04081136	     -6.83768255	     17.27187233	     -7.56693878	    -21.49221478	    -12.98517704	      3.22221134	     21.54502621	    -17.18744002	     24.51318901	     39.17390571	     90.00000001	      0.00000000	      0.00000000	    -10.83418621	    -13.82152170	      7.23643618	     37.11913652	     90.00000001	      0.00000000	      0.00000000
      2.10000000	      7.13428329	      6.82529435	     -2.42350819	     -0.44809390	      0.98768681	      0.30892013	    -13.46507944	    -13.35815799	    -25.22054667	     40.18626119	     -4.59461629	      0.70138257	     -3.28152654	     10.46317491	     -7.56598841	      4.63447508	      8.24372238	    -15.79828561	      2.13991845	     -2.69003380	      0.03734862	     -6.17762733	     17.60475499	     -7.56598841	    -21.92560112	    -12.92819976	      2.97057807	     20.89123569	    -17.12332968	     24.49308737	     39.10003903	     90.00000001	      0.00000000	      0.00000000	    -10.02785788	    -14.10172058	      7.45081087	     37.10274533	     90.00000001	      0.00000000	      0.00000000
      2.11000000	      7.01650837	      6.90506865	     -2.12012672	     -0.44022924	      0.98877982	      0.30642892	    -12.02814248	    -14.10495061	    -25.24651583	     43.14971379	     -4.69592415	      0.75310458	     -5.78020892	      7.65514804	     -7.56413930	      4.25890451	      8.63267952	    -15.56977175	      2.12583987	     -2.90805360	      0.03710291	     -5.76575298	     17.93034159	     -7.56413930	    -22.00245033	    -12.90795747	      2.52747631	     20.14431611	    -17.08730468	     24.30938979	     39.13859243	     90.00000001	      0.00000000	      0.00000000	     -9.20988819	    -14.49316010	      8.22109949	     37.10617863	     90.00000001	      0.00000000	      0.00000000
